<svg xmlns="http://www.w3.org/2000/svg" version="1.1" xmlns:xlink="http://www.w3.org/1999/xlink" xmlns:svgjs="http://svgjs.com/svgjs" width="1440" height="560" preserveAspectRatio="none" viewBox="0 0 1440 560"><g mask="url(&quot;#SvgjsMask1000&quot;)" fill="none"><rect width="1440" height="560" x="0" y="0" fill="#0e2a47"></rect><path d="M1065.85 82.43 a21.07 21.07 0 1 0 42.14 0 a21.07 21.07 0 1 0 -42.14 0z" stroke="#037b0b"></path><path d="M1190.35 197.87L1238.84 197.87L1238.84 246.36L1190.35 246.36z" fill="#e73635"></path><path d="M1148.33 228.07a31.17 31.17 0 1 0-4.45-62.18z" fill="#037b0b"></path><path d="M297.63 115.65 a10.13 10.13 0 1 0 20.26 0 a10.13 10.13 0 1 0 -20.26 0z" fill="#e73635"></path><path d="M335.56 550.37a11.69 11.69 0 1 0 23.04 3.98z" stroke="#e73635"></path><path d="M350.54 353.36L350.7 353.36L350.7 391.51L350.54 391.51z" fill="#e73635"></path><path d="M78.45 281.98L109.65 281.98L109.65 283.38L78.45 283.38z" fill="#e73635"></path><path d="M773.6 361.61L793.52 361.61L793.52 386.57L773.6 386.57z" stroke="#d3b714"></path><path d="M1331.12 491.82a3.93 3.93 0 1 0 7.58 2.06z" fill="#d3b714"></path><path d="M1348.61 54.54a23.79 23.79 0 1 0 23.38 41.44z" fill="#037b0b"></path><path d="M873.82 137.2a3.53 3.53 0 1 0-6.88-1.59z" stroke="#037b0b"></path><path d="M948.52 273.73a38.29 38.29 0 1 0 47.4 60.15z" fill="#037b0b"></path><path d="M294.54 480.62 a37.44 37.44 0 1 0 74.88 0 a37.44 37.44 0 1 0 -74.88 0z" stroke="#037b0b"></path><path d="M557.51 69.17a51.61 51.61 0 1 0-87.12-55.36z" stroke="#e73635"></path><path d="M1376.44 266.51a53.56 53.56 0 1 0 1.06-107.11z" fill="#037b0b"></path><path d="M929.97 124.32 a13.41 13.41 0 1 0 26.82 0 a13.41 13.41 0 1 0 -26.82 0z" stroke="#e73635"></path><path d="M464.3 98.32 a14.55 14.55 0 1 0 29.1 0 a14.55 14.55 0 1 0 -29.1 0z" fill="#037b0b"></path><path d="M938.68 265.64a53.41 53.41 0 1 0 78.78-72.14z" stroke="#037b0b"></path><path d="M1419.94 96.49L1439.39 96.49L1439.39 115.94L1419.94 115.94z" fill="#037b0b"></path><path d="M63.64 381.24 a40.12 40.12 0 1 0 80.24 0 a40.12 40.12 0 1 0 -80.24 0z" fill="#d3b714"></path><path d="M399.95 298.9L444.73 298.9L444.73 343.68L399.95 343.68z" stroke="#d3b714"></path><path d="M647.18 555.15a51.27 51.27 0 1 0 57.03-85.22z" stroke="#d3b714"></path><path d="M72.4 199.63L74.71 199.63L74.71 201.94L72.4 201.94z" stroke="#e73635"></path><path d="M416.59 309.72L446.02 309.72L446.02 339.15L416.59 339.15z" stroke="#037b0b"></path><path d="M887.92 551.37a33.77 33.77 0 1 0-58.74-33.33z" fill="#037b0b"></path><path d="M1374.1 140.98a1.76 1.76 0 1 0-0.56 3.48z" fill="#e73635"></path><path d="M808.48 554.7L855.9 554.7L855.9 574.31L808.48 574.31z" stroke="#037b0b"></path><path d="M1125.11 332.21 a40.6 40.6 0 1 0 81.2 0 a40.6 40.6 0 1 0 -81.2 0z" fill="#d3b714"></path><path d="M1346.5 541.7L1366.58 541.7L1366.58 561.78L1346.5 561.78z" fill="#d3b714"></path><path d="M38 227.16L68 227.16L68 235.84L38 235.84z" fill="#037b0b"></path><path d="M99.95 230.73L124.31 230.73L124.31 255.09L99.95 255.09z" fill="#037b0b"></path><path d="M296.29 47.68L311.2 47.68L311.2 62.59L296.29 62.59z" fill="#e73635"></path><path d="M801.41 321.33 a1.47 1.47 0 1 0 2.94 0 a1.47 1.47 0 1 0 -2.94 0z" fill="#e73635"></path></g><defs><mask id="SvgjsMask1000"><rect width="1440" height="560" fill="#ffffff"></rect></mask></defs></svg>